PathFileType	4	(X/Y/Z)	/Users/niels/Desktop/University/Third Semester/Perception and Action/Exam/Gymnastics Motion Tracking/Code for Gym Tracking/Analyzed Data/Webcam_Backflip/id19_5_trajectory_Sports2D/id19_5_trajectory_Sports2D_px_person00.trc
DataRate	CameraRate	NumFrames	NumMarkers	Units	OrigDataRate	OrigDataStartFrame	OrigNumFrames
29.714285714285715	29.714285714285715	8	22	m	29.714285714285715	52	105
Frame#	Time	Hip			RHip			RKnee			RAnkle			RBigToe			RSmallToe			RHeel			LHip			LKnee			LAnkle			LBigToe			LSmallToe			LHeel			Neck			Head			Nose			RShoulder			RElbow			RWrist			LShoulder			LElbow			LWrist		
		X1	Y1	Z1	X2	Y2	Z2	X3	Y3	Z3	X4	Y4	Z4	X5	Y5	Z5	X6	Y6	Z6	X7	Y7	Z7	X8	Y8	Z8	X9	Y9	Z9	X10	Y10	Z10	X11	Y11	Z11	X12	Y12	Z12	X13	Y13	Z13	X14	Y14	Z14	X15	Y15	Z15	X16	Y16	Z16	X17	Y17	Z17	X18	Y18	Z18	X19	Y19	Z19	X20	Y20	Z20	X21	Y21	Z21	X22	Y22	Z22
52	1.75	0.8390720665088157	-0.7230748033733725	0.0	0.8114870324663639	-0.7229870400845524	0.0	0.8565501015042017	-0.8425118739497071	0.0	0.7676643145316407	-0.9165592849362351	0.0	0.7858871020516464	-0.9661824598079662	0.0	0.7678987961126554	-0.9630399454275619	0.0	0.7472979213892808	-0.9186547647994813	0.0	0.8731978919262539	-0.7243642836931126	0.0	0.9498877383672226	-0.7749233069340674	0.0	0.868404127688888	-0.869819426029274	0.0	0.8982295220482317	-0.9109415894135005	0.0	0.8967578803618746	-0.9025726724118399	0.0	0.8510918662588957	-0.8827134626571435	0.0	0.9458478471869388	-0.6433330797045551	0.0	1.0229356052862548	-0.6145770650474455	0.0	0.999468569879957	-0.6585922367050805	0.0	0.8931664674754868	-0.6338021808587839	0.0	0.8001838153149393	-0.6576206823138535	0.0	0.7440776854900646	-0.7138659686793933	0.0	0.9516618573257906	-0.6453041061046759	0.0	0.8912471023134122	-0.6748210860927732	0.0	0.8762778284703246	-0.7149951922566342	0.0
53	1.783653846153846	0.8486568157565051	-0.7074732986089095	0.0	0.8206435731520886	-0.7069103053664296	0.0	0.8563301658476798	-0.8352811365558735	0.0	0.7676041492564764	-0.9141840685919603	0.0	0.7859777658026975	-0.9641560474662788	0.0	0.7683102254958872	-0.9608739330119367	0.0	0.7461047950540243	-0.9170219354963384	0.0	0.881719784142374	-0.7075893883199147	0.0	0.9615658957574907	-0.7595686432861283	0.0	0.8938458920478163	-0.8689943806770951	0.0	0.931978573628982	-0.9064229444076819	0.0	0.929247420185141	-0.8991548549676593	0.0	0.8766464953650831	-0.8840013300525376	0.0	0.9583323715261686	-0.6226754860673478	0.0	1.0378388814720516	-0.5943545239948727	0.0	1.013504823398046	-0.6365619056856523	0.0	0.908746106841401	-0.6144693179828566	0.0	0.8114619150887069	-0.6219448174030733	0.0	0.7527747292758231	-0.6650020267924822	0.0	0.958838292312765	-0.6197865002793324	0.0	0.8875140483311087	-0.6384967117281554	0.0	0.8577267096603928	-0.6697351480717986	0.0
54	1.8173076923076923	0.8586224326137383	-0.6960701810723093	0.0	0.8306142549516932	-0.6946825490176983	0.0	0.8557912867572497	-0.8306057085377948	0.0	0.7676755889402145	-0.9132917220070708	0.0	0.7855916712164097	-0.9632966374421322	0.0	0.7684315066712295	-0.9603386003519969	0.0	0.7450016668387243	-0.9167207602421039	0.0	0.8905305368797471	-0.6952484818126238	0.0	0.9709373265242489	-0.7529138426489573	0.0	0.9212225841561493	-0.8758838795735607	0.0	0.9677133784242551	-0.9086368556135926	0.0	0.9634853087669027	-0.9017697185292506	0.0	0.9047266343407232	-0.8931284469816823	0.0	0.9705440993194768	-0.6032228047729115	0.0	1.052171009967463	-0.5738294812947949	0.0	1.0272889172304653	-0.6148657487029457	0.0	0.9250713769691423	-0.5971541420607754	0.0	0.8249644623528708	-0.5921921606162055	0.0	0.7669509767178908	-0.6239694402925159	0.0	0.9662380289889121	-0.5970333010658707	0.0	0.8869879969146856	-0.606727083676177	0.0	0.844199891145908	-0.6309856992192454	0.0
55	1.8509615384615383	0.8694125732455055	-0.6888110810217747	0.0	0.8417654989365498	-0.686363805036469	0.0	0.8564553195932144	-0.827514563228369	0.0	0.768563617543384	-0.9117846357601939	0.0	0.7851484536979497	-0.9620105300794705	0.0	0.7683996354067014	-0.9593210853081215	0.0	0.7450253272115595	-0.9154341692899077	0.0	0.9002334246613657	-0.6873053817842067	0.0	0.9782946372952721	-0.7542090979235376	0.0	0.9480525829981608	-0.8880408751079454	0.0	1.0014904408907837	-0.915714725982349	0.0	0.9962141075707588	-0.90896402464278	0.0	0.9326022119228836	-0.9073719617890609	0.0	0.9824979845393427	-0.5857583323667025	0.0	1.0653636037860574	-0.553797643100542	0.0	1.0406687858101873	-0.5945496382171845	0.0	0.9412064449805168	-0.5820895038263288	0.0	0.8391015557047848	-0.5701115881726527	0.0	0.782634436408881	-0.5946004378838373	0.0	0.9744937746639709	-0.5786326013865614	0.0	0.8896308041540066	-0.5825748088690669	0.0	0.8366538189475244	-0.6030587274012309	0.0
56	1.8846153846153846	0.8812554891265566	-0.6854054559326268	0.0	0.8540697795511132	-0.6817447950417441	0.0	0.8591535479861966	-0.8259763375780655	0.0	0.7707982157817239	-0.9089952692977971	0.0	0.7849221210042959	-0.959887114717667	0.0	0.7683850868991776	-0.9570624959533042	0.0	0.747002916587131	-0.9122962623383488	0.0	0.9111145599256724	-0.6834971713723269	0.0	0.9841542458976136	-0.7620296649582683	0.0	0.9717325227332373	-0.903521245960212	0.0	1.0296395789510202	-0.9264906160233904	0.0	1.02402563225256	-0.9198916117577578	0.0	0.9573853245593317	-0.9244442913465218	0.0	0.9942457157856761	-0.570954590499657	0.0	1.0772352915996704	-0.5349993347647825	0.0	1.0534917208631094	-0.5763633120183468	0.0	0.9560992674609269	-0.5694355108502193	0.0	0.8527963613254576	-0.5564447005979748	0.0	0.7968574086338753	-0.5788517032652344	0.0	0.9843005608143316	-0.5656086510040443	0.0	0.8956750296145832	-0.5679121231159966	0.0	0.8350488094716588	-0.5881307968004301	0.0
57	1.9182692307692306	0.8941746649739446	-0.6855132895553571	0.0	0.867249017490242	-0.6805910002214203	0.0	0.864207788261118	-0.8265546017255511	0.0	0.7747828350244672	-0.9053860211684703	0.0	0.7851343686714012	-0.9573344598066021	0.0	0.7687089664906466	-0.9538039893051321	0.0	0.7514798055031345	-0.9076367958528598	0.0	0.9232037152467031	-0.6835336847687611	0.0	0.9892199082904208	-0.7746977904490274	0.0	0.990334111909786	-0.9209582736985357	0.0	1.0496820371171134	-0.9403268701946627	0.0	1.0443492870939506	-0.9341484627733971	0.0	0.97690876611062	-0.9427338471460974	0.0	1.005711017877393	-0.5592891360116108	0.0	1.087813515103047	-0.518038992602549	0.0	1.065522564204028	-0.5607633340028557	0.0	0.9689040063739524	-0.5593738123280848	0.0	0.8654994555975485	-0.5511708884699946	0.0	0.8084350200985407	-0.5770129190967029	0.0	0.9960593242643591	-0.5584084928695068	0.0	0.9053688949444744	-0.56344671913307	0.0	0.8389333946550279	-0.5865749344071889	0.0
58	1.9519230769230769	0.908049145544721	-0.6888487921284568	0.0	0.880970738364885	-0.682798393244521	0.0	0.871733320641871	-0.8298975956224506	0.0	0.7808573141661235	-0.9019475924496678	0.0	0.7860702064517975	-0.9550906462401891	0.0	0.7698692626568537	-0.9502879642200253	0.0	0.7587568563232956	-0.9024796377112095	0.0	0.9363625238186674	-0.6871607173014329	0.0	0.9942431458363493	-0.7905625321094776	0.0	1.0031533083592903	-0.9393173884541818	0.0	1.0607179777610531	-0.9565535806806204	0.0	1.0561915432761328	-0.9513421290059991	0.0	0.9903471762357976	-0.9611083306379935	0.0	1.0167134319828692	-0.5509426251214526	0.0	1.0969918488144943	-0.5033458576672207	0.0	1.0764562302293592	-0.5479380545357454	0.0	0.9792487553225752	-0.5521268614732543	0.0	0.8772154831342296	-0.5537164318112251	0.0	0.8182531571898031	-0.5879850803168933	0.0	1.0096075338932584	-0.5568117826325596	0.0	0.9188747509732695	-0.5688589312236739	0.0	0.8485209448784198	-0.597357871330868	0.0
59	1.985576923076923	0.9226017159112014	-0.6951331809860879	0.0	0.8949317437935849	-0.688350813499447	0.0	0.8817999741881706	-0.8363240064930954	0.0	0.7893107865720242	-0.8996928557043604	0.0	0.7883013271889043	-0.9539111750454312	0.0	0.7726175748012827	-0.9474379096589818	0.0	0.7689200878165497	-0.8980958950816244	0.0	0.9503082610670464	-0.6941049488580365	0.0	0.999821544080145	-0.808115780390389	0.0	1.0107539905834317	-0.9576982139543504	0.0	1.0633677614675907	-0.9740607224020356	0.0	1.0602443511092992	-0.9707423872525891	0.0	0.9983129315427112	-0.9786614857465472	0.0	1.0270484533022504	-0.5457981897162401	0.0	1.104369390661522	-0.49123403006180516	0.0	1.085944049662529	-0.5378788144943814	0.0	0.9872081764277592	-0.5479023136118355	0.0	0.8884503830676774	-0.5630235873460913	0.0	0.828845781462736	-0.6094195724418272	0.0	1.024219722796355	-0.5599804241923864	0.0	0.9361227648828296	-0.5827288037219974	0.0	0.8651310298358478	-0.6183368349934907	0.0
